<svg width="25" height="24" viewBox="0 0 25 24" fill="none" xmlns="http://www.w3.org/2000/svg">
<path d="M12.5106 22.5L22.089 12.7577C22.7608 11.9484 23.1227 11.489 23.5374 10.5375C23.8658 9.70043 24.0224 8.80272 23.9974 7.90059C23.9724 6.99846 23.7664 6.11134 23.3922 5.29475C23.018 4.47816 22.4837 3.74968 21.8228 3.15489C21.1619 2.56011 20.3885 2.11184 19.5511 1.83812C18.7137 1.5644 17.8303 1.47114 16.9562 1.56417C16.0821 1.6572 15.2361 1.93452 14.4711 2.37876C13.7062 2.82301 13.0388 3.42463 12.5106 4.14596C11.9848 3.41935 11.3181 2.81243 10.5527 2.36342C9.78719 1.91441 8.93948 1.63303 8.06292 1.537C7.18635 1.44097 6.29992 1.53237 5.45944 1.80545C4.61897 2.07853 3.84265 2.52737 3.17938 3.1237C2.51611 3.72004 1.98025 4.45095 1.60555 5.27041C1.23085 6.08988 1.02543 6.98014 1.00221 7.88514C0.979002 8.79015 1.1385 9.69028 1.47067 10.5289C1.80284 11.3675 2.30049 12.1263 2.93227 12.7577L12.5106 22.5Z" stroke="#141414" stroke-width="1.3" stroke-linecap="round" stroke-linejoin="round"/>
</svg>
