<svg width="23" height="23" viewBox="0 0 23 23" fill="none" xmlns="http://www.w3.org/2000/svg">
<path d="M21.916 16.625V19.75C21.9172 20.0401 21.8578 20.3273 21.7415 20.5931C21.6253 20.8589 21.4549 21.0975 21.2411 21.2936C21.0273 21.4898 20.7749 21.6391 20.5001 21.732C20.2253 21.8249 19.9341 21.8595 19.6452 21.8334C16.4398 21.4851 13.3608 20.3898 10.6556 18.6354C8.13874 17.0361 6.0049 14.9023 4.40559 12.3854C2.64515 9.66794 1.54959 6.57397 1.20767 3.35419C1.18164 3.06613 1.21588 2.77581 1.30819 2.50171C1.40051 2.22761 1.54889 1.97574 1.74389 1.76212C1.93888 1.54851 2.17622 1.37784 2.44079 1.26098C2.70536 1.14412 2.99136 1.08363 3.28059 1.08335H6.40559C6.91112 1.07838 7.40121 1.25739 7.78451 1.58703C8.16781 1.91667 8.41817 2.37444 8.48892 2.87502C8.62082 3.87509 8.86543 4.85703 9.21809 5.8021C9.35824 6.17494 9.38857 6.58014 9.30549 6.96969C9.22241 7.35923 9.02941 7.7168 8.74934 8.00002L7.42642 9.32294C8.90929 11.9308 11.0686 14.0901 13.6764 15.5729L14.9993 14.25C15.2826 13.97 15.6401 13.7769 16.0297 13.6939C16.4192 13.6108 16.8244 13.6411 17.1973 13.7813C18.1423 14.1339 19.1243 14.3785 20.1243 14.5104C20.6303 14.5818 21.0925 14.8367 21.4228 15.2266C21.7532 15.6165 21.9287 16.1142 21.916 16.625Z" stroke="white" stroke-width="1.3" stroke-linecap="round" stroke-linejoin="round"/>
</svg>
