<svg width="23" height="23" viewBox="0 0 23 23" fill="none" xmlns="http://www.w3.org/2000/svg">
<path d="M21.917 16.625V19.75C21.9182 20.0401 21.8587 20.3273 21.7425 20.5931C21.6263 20.8589 21.4558 21.0975 21.2421 21.2936C21.0283 21.4898 20.7759 21.6391 20.5011 21.732C20.2263 21.8249 19.9351 21.8595 19.6461 21.8334C16.4408 21.4851 13.3618 20.3898 10.6566 18.6354C8.13972 17.0361 6.00588 14.9023 4.40657 12.3854C2.64613 9.66794 1.55057 6.57397 1.20865 3.35419C1.18262 3.06613 1.21685 2.77581 1.30917 2.50171C1.40149 2.22761 1.54987 1.97574 1.74486 1.76212C1.93986 1.54851 2.1772 1.37784 2.44177 1.26098C2.70633 1.14412 2.99234 1.08363 3.28157 1.08335H6.40657C6.91209 1.07838 7.40218 1.25739 7.78549 1.58703C8.16879 1.91667 8.41915 2.37444 8.4899 2.87502C8.6218 3.87509 8.86641 4.85703 9.21907 5.8021C9.35922 6.17494 9.38955 6.58014 9.30647 6.96969C9.22339 7.35923 9.03038 7.7168 8.75032 8.00002L7.4274 9.32294C8.91027 11.9308 11.0695 14.0901 13.6774 15.5729L15.0003 14.25C15.2835 13.97 15.6411 13.7769 16.0306 13.6939C16.4202 13.6108 16.8254 13.6411 17.1982 13.7813C18.1433 14.1339 19.1252 14.3785 20.1253 14.5104C20.6313 14.5818 21.0934 14.8367 21.4238 15.2266C21.7541 15.6165 21.9297 16.1142 21.917 16.625Z" stroke="#141414" stroke-width="1.3" stroke-linecap="round" stroke-linejoin="round"/>
</svg>
