<svg width="80" height="80" viewBox="0 0 80 80" fill="none" xmlns="http://www.w3.org/2000/svg">
<mask id="path-2-inside-1_1044_10187" fill="white">
<path d="M0 0H80V80H0V0Z"/>
</mask>
<path d="M0 0V-1H-1V0H0ZM80 0H81V-1H80V0ZM80 80V81H81V80H80ZM0 80H-1V81H0V80ZM0 1H80V-1H0V1ZM79 0V80H81V0H79ZM80 79H0V81H80V79ZM1 80V0H-1V80H1Z" fill="white" mask="url(#path-2-inside-1_1044_10187)"/>
<path d="M44 31.5853L36 39.5853L44 47.5853" stroke="white" stroke-width="1.3" stroke-linecap="round" stroke-linejoin="round"/>
<rect x="-0.5" y="0.5" width="79" height="79" transform="matrix(-1 0 0 1 79 0)" stroke="white"/>
</svg>
