<svg width="40" height="40" viewBox="0 0 40 40" fill="none" xmlns="http://www.w3.org/2000/svg">
<path d="M20.0015 13.4919C16.4175 13.4919 13.4927 16.4167 13.4927 20.0007C13.4927 23.5847 16.4175 26.5095 20.0015 26.5095C23.5854 26.5095 26.5102 23.5847 26.5102 20.0007C26.5102 16.4167 23.5854 13.4919 20.0015 13.4919ZM39.5229 20.0007C39.5229 17.3054 39.5474 14.6345 39.396 11.9441C39.2446 8.81908 38.5317 6.04564 36.2466 3.76049C33.9565 1.47045 31.188 0.762439 28.063 0.611071C25.3677 0.459704 22.6968 0.484118 20.0063 0.484118C17.311 0.484118 14.6401 0.459704 11.9497 0.611071C8.82469 0.762439 6.05126 1.47533 3.7661 3.76049C1.47606 6.05052 0.768054 8.81908 0.616687 11.9441C0.465319 14.6394 0.489734 17.3103 0.489734 20.0007C0.489734 22.6911 0.465319 25.3669 0.616687 28.0574C0.768054 31.1824 1.48094 33.9558 3.7661 36.241C6.05614 38.531 8.82469 39.239 11.9497 39.3904C14.645 39.5417 17.3159 39.5173 20.0063 39.5173C22.7016 39.5173 25.3725 39.5417 28.063 39.3904C31.188 39.239 33.9614 38.5261 36.2466 36.241C38.5366 33.9509 39.2446 31.1824 39.396 28.0574C39.5522 25.3669 39.5229 22.696 39.5229 20.0007ZM20.0015 30.0154C14.4595 30.0154 9.9868 25.5427 9.9868 20.0007C9.9868 14.4587 14.4595 9.98607 20.0015 9.98607C25.5434 9.98607 30.0161 14.4587 30.0161 20.0007C30.0161 25.5427 25.5434 30.0154 20.0015 30.0154ZM30.4263 11.9148C29.1323 11.9148 28.0874 10.8699 28.0874 9.57591C28.0874 8.28197 29.1323 7.23705 30.4263 7.23705C31.7202 7.23705 32.7651 8.28197 32.7651 9.57591C32.7655 9.88317 32.7053 10.1875 32.5879 10.4714C32.4705 10.7554 32.2982 11.0133 32.0809 11.2306C31.8637 11.4479 31.6057 11.6201 31.3218 11.7375C31.0378 11.8549 30.7335 11.9152 30.4263 11.9148Z" fill="white"/>
</svg>
