<svg width="281" height="62" viewBox="0 0 281 62" fill="none" xmlns="http://www.w3.org/2000/svg">
<g clip-path="url(#clip0_1001_14708)" filter="url(#filter0_dd_1001_14708)">
<path d="M240.678 24.9137H242.285V24.1942H229.502V24.9137H231.109V32.7554C231.109 35.705 229.782 37.5036 227.616 39.0144L228.874 41.3165C231.807 39.0144 231.807 35.6331 231.807 32.7554V24.9137H237.186V39.6619H235.509V40.3813H242.355V39.6619H240.678V24.9137ZM276.232 34.8417C276.232 36.2806 275.603 39.8058 271.901 39.8058C269.107 39.8058 268.199 37.7914 268.199 35.9928V28.3669C268.199 26.7842 269.107 24.7698 271.622 24.7698C275.184 24.7698 275.393 27.9353 275.393 28.5827V28.6547H275.882L276.721 24.1942H276.162L275.533 25.0576C274.905 24.6259 273.577 23.9784 271.272 23.9784C267.71 23.9784 264.776 26.2086 264.776 30.3094V34.9137C264.776 37.7914 267.431 40.6691 271.272 40.6691C275.463 40.6691 277 37.4317 277 34.9137H276.232V34.8417ZM253.181 23.9065C249.619 23.9065 246.685 26.1367 246.685 30.2374V34.8417C246.685 37.7194 249.34 40.5971 253.181 40.5971C257.372 40.5971 258.909 37.3597 258.909 34.8417H258.071C258.071 36.2806 257.442 39.8058 253.74 39.8058C250.946 39.8058 250.038 37.7914 250.038 35.9928V32.5396H259.817V29.6619C259.817 26.5683 257.023 23.9065 253.181 23.9065ZM250.038 31.7482V28.223C250.038 26.6403 250.946 24.6259 253.461 24.6259C255.626 24.6259 256.464 26.8561 256.464 28.295C256.464 29.0863 256.394 30.741 256.394 31.7482H250.038ZM128.221 24.1942V24.9137H129.897V31.7482H123.96V24.9137H125.636V24.1942H118.791V24.9137H120.467V39.6619H118.791V40.3094H125.636V39.6619H123.96V32.4676H129.897V39.6619H128.221V40.3094H135.066V39.6619H133.39V24.9137H135.066V24.1942H128.221ZM187.523 24.1942V25.0576L181.446 37.4317V24.9137H183.122V24.1942H176.277V24.9137H178.023V39.6619H176.277V40.3094H181.446V39.3741L187.523 27V39.6619H185.777V40.3094H192.622V39.6619H190.946V24.9137H192.622V24.1942H187.523ZM107.126 24.1942C104.682 24.1942 100.141 25.0576 100.141 28.7986C100.141 31.0288 101.608 32.1799 103.075 32.8273L99.6524 39.6619H98.1157V40.3813H102.865L106.288 33.4029H108.872V39.6619H107.126V40.3813H113.971V39.6619H112.365V24.9137H113.971V24.1942H107.126ZM108.872 32.6835H106.777C105.45 32.6835 103.424 31.6763 103.424 28.7986C103.424 25.9928 105.24 24.9137 107.126 24.9137H108.872V32.6835ZM168.105 31.6763H165.73L166.847 28.6547C167.476 27 168.664 25.9209 170.969 25.9209L169.641 23.3309C166.917 24.8417 166.498 26.8561 165.939 28.295C165.381 29.7338 164.752 31.6043 164.752 31.6043H162.098V24.6978H163.774V23.9784H156.929V24.6978H158.605V39.446H156.929V40.1655H163.774V39.446H162.098V32.2518H164.612L167.546 40.0935H172.715V39.3741H171.108L168.105 31.6763ZM67.6613 26.9281H64.7975V18.5108H72.9699L72.8302 18.5827C72.5508 18.7986 72.4111 19.1583 72.4111 19.518V22.7554H73.1794L74.4367 17.8633H59V18.5827H61.1653V39.8058H59V40.5252H67.6613C70.5252 40.5252 75.2749 38.5827 75.2749 33.9065C75.2749 29.0144 70.6649 26.9281 67.6613 26.9281ZM67.1025 39.6619H64.7975V27.5755H66.8231C69.0583 27.5755 71.6427 29.446 71.6427 33.6187C71.5729 38.5108 68.5694 39.6619 67.1025 39.6619ZM88.6161 23.9784C85.6825 23.9784 84.4252 26.7122 84.2156 27.2878L83.7965 24.3381H79.396V25.0576H81.0026V46.2806H79.396V47H86.2413V46.2806H84.5649V40.4532L84.1458 37.2158C84.1458 37.2158 85.2634 40.741 88.6161 40.741C92.0388 40.741 93.9946 37.5755 93.9946 34.9137V29.7338C93.9247 26.5683 91.8292 23.9784 88.6161 23.9784ZM90.5719 36.1367C90.5719 37.3597 90.2925 39.9496 87.9177 39.9496C85.3332 39.9496 84.4252 36.4964 84.4252 36.4964V28.223C84.4252 28.223 85.4729 24.8417 87.9177 24.8417C89.9433 24.8417 90.5719 26.8561 90.5719 28.4388V36.1367ZM147.15 39.8777C144.356 39.8777 143.448 37.8633 143.448 36.0647V28.4388C143.448 26.8561 144.356 24.8417 146.871 24.8417C150.433 24.8417 150.642 28.0072 150.642 28.6547H151.131L151.97 24.1942H151.411L150.782 25.0576C150.153 24.6259 148.826 23.9784 146.521 23.9784C142.959 23.9784 140.025 26.2086 140.025 30.3094V34.9137C140.025 37.7914 142.68 40.6691 146.521 40.6691C150.712 40.6691 152.249 37.4317 152.249 34.9137H151.411C151.481 36.3525 150.782 39.8777 147.15 39.8777ZM208.408 24.1942V25.1295L202.401 37.5036V24.9137H204.077V24.1942H197.232V24.9137H198.908V39.6619H197.232V40.3094H202.401V39.446L208.408 27.0719V39.6619H206.731V40.3094H213.577V39.6619H211.9V24.9137H213.577V24.1942H208.408ZM205.404 20.6691C208.897 20.6691 209.386 17.2158 209.386 17.2158L206.941 17C206.941 17 207.151 19.9496 205.335 19.9496C203.588 19.9496 203.728 17 203.728 17L201.283 17.2158C201.423 17.2158 201.982 20.6691 205.404 20.6691Z" fill="white"/>
<path d="M35.0466 41.6498C33.7908 42.4967 32.3257 42.9201 30.9304 42.9201C29.4653 42.9201 28.0003 42.4967 26.6747 41.6498C25.3492 40.8029 17.7448 33.9574 17.7448 33.9574L17.2564 34.5925C17.2564 34.5925 16.4192 35.4394 15.0239 35.4394C12.2333 35.3688 8.60551 30.1465 8.60551 30.1465L6.30325 31.1345C6.30325 31.1345 4.00099 34.4514 4.00099 38.2623C3.93123 45.1784 7.55903 45.8842 6.23349 47.8602C6.02419 48.213 5.67536 48.4953 5.67536 48.4953C8.8148 51.8122 13.8379 54 19.6982 54C24.8608 54 29.256 52.2357 32.4653 48.9893C34.907 46.5193 36.4419 43.3435 37 39.7443C36.5116 40.5206 35.814 41.1558 35.0466 41.6498ZM27.0236 48.6365C26.1166 48.7776 25.2097 48.8482 24.3027 48.8482C17.1866 48.8482 11.0473 44.4727 8.39621 38.2623C8.25668 37.98 8.88457 37.6272 9.0241 37.9095C12.3728 43.9081 18.582 47.9308 25.9073 47.9308H26.9538C27.2329 48.0013 27.3026 48.6365 27.0236 48.6365ZM24.6515 13.2796C24.7911 13.5619 25.0004 13.7031 25.3492 13.7031L34.9768 13.3502L37 7.35153L34.7675 1.35286L25.3492 1C25.0701 1 24.7911 1.14115 24.6515 1.42344C24.0934 2.62317 23.2562 4.81092 23.2562 7.35153C23.2562 9.82157 24.0934 12.0093 24.6515 13.2796ZM4.00099 9.25699V25.8415C4.00099 26.4767 4.41959 26.9707 5.04747 27.0413C5.74513 27.1119 9.2334 25.6298 9.2334 25.1358V16.5965L4.00099 9.25699Z" fill="white"/>
<path d="M13.2146 19.8191C18.7992 27.1886 25.1517 27.117 29.8288 27.0455C30.1081 27.0455 30.2477 27.2601 30.1779 27.5463L26.6875 37.3485L28.5723 39.0657C28.9213 39.4235 29.1308 39.8527 29.2006 40.3536C29.2006 40.8544 29.061 41.2837 28.7817 41.6415C30.6665 42.2854 32.6211 42.0708 34.2267 40.926C35.9719 39.7097 37.4379 37.1339 36.8794 33.4849C36.2511 30.1221 34.7852 26.9739 32.691 24.6844C32.4117 24.3982 32.0627 24.2551 31.7136 24.2551H29.759C25.431 24.3982 19.4275 24.5413 14.2617 17.7441L9.23558 10.5177V4.72223C11.26 7.65573 13.9127 8.51432 16.7748 8.58587L19.2181 14.0236C19.3577 14.4529 19.7765 14.6675 20.1954 14.6675H23.3367C23.5461 14.6675 23.6858 14.4529 23.616 14.2382C23.1273 13.2366 21.8708 10.5177 21.8708 7.29799C21.8708 4.07829 23.1273 1.35943 23.616 0.357745C23.616 0.214647 23.4763 0 23.2669 0H20.2652C19.7067 0 19.2879 0.357745 19.0785 0.858587L16.705 6.08166C13.2146 5.93856 10.1431 2.71886 9.30538 0.0715489L4 0V6.79715L13.2146 19.8191Z" fill="white"/>
</g>
<defs>
<filter id="filter0_dd_1001_14708" x="0" y="0" width="281" height="62" filterUnits="userSpaceOnUse" color-interpolation-filters="sRGB">
<feFlood flood-opacity="0" result="BackgroundImageFix"/>
<feColorMatrix in="SourceAlpha" type="matrix" values="0 0 0 0 0 0 0 0 0 0 0 0 0 0 0 0 0 0 127 0" result="hardAlpha"/>
<feOffset dy="4"/>
<feGaussianBlur stdDeviation="2"/>
<feComposite in2="hardAlpha" operator="out"/>
<feColorMatrix type="matrix" values="0 0 0 0 0 0 0 0 0 0 0 0 0 0 0 0 0 0 0.25 0"/>
<feBlend mode="normal" in2="BackgroundImageFix" result="effect1_dropShadow_1001_14708"/>
<feColorMatrix in="SourceAlpha" type="matrix" values="0 0 0 0 0 0 0 0 0 0 0 0 0 0 0 0 0 0 127 0" result="hardAlpha"/>
<feOffset dy="4"/>
<feGaussianBlur stdDeviation="2"/>
<feComposite in2="hardAlpha" operator="out"/>
<feColorMatrix type="matrix" values="0 0 0 0 0 0 0 0 0 0 0 0 0 0 0 0 0 0 0.25 0"/>
<feBlend mode="normal" in2="effect1_dropShadow_1001_14708" result="effect2_dropShadow_1001_14708"/>
<feBlend mode="normal" in="SourceGraphic" in2="effect2_dropShadow_1001_14708" result="shape"/>
</filter>
<clipPath id="clip0_1001_14708">
<rect width="273" height="54" fill="white" transform="translate(4)"/>
</clipPath>
</defs>
</svg>
