<svg width="273" height="54" viewBox="0 0 273 54" fill="none" xmlns="http://www.w3.org/2000/svg">
<g clip-path="url(#clip0_1001_15193)">
<path d="M236.678 24.9137H238.285V24.1942H225.502V24.9137H227.109V32.7554C227.109 35.705 225.782 37.5036 223.616 39.0144L224.874 41.3165C227.807 39.0144 227.807 35.6331 227.807 32.7554V24.9137H233.186V39.6619H231.509V40.3813H238.355V39.6619H236.678V24.9137ZM272.232 34.8417C272.232 36.2806 271.603 39.8058 267.901 39.8058C265.107 39.8058 264.199 37.7914 264.199 35.9928V28.3669C264.199 26.7842 265.107 24.7698 267.622 24.7698C271.184 24.7698 271.393 27.9353 271.393 28.5827V28.6547H271.882L272.721 24.1942H272.162L271.533 25.0576C270.905 24.6259 269.577 23.9784 267.272 23.9784C263.71 23.9784 260.776 26.2086 260.776 30.3094V34.9137C260.776 37.7914 263.431 40.6691 267.272 40.6691C271.463 40.6691 273 37.4317 273 34.9137H272.232V34.8417ZM249.181 23.9065C245.619 23.9065 242.685 26.1367 242.685 30.2374V34.8417C242.685 37.7194 245.34 40.5971 249.181 40.5971C253.372 40.5971 254.909 37.3597 254.909 34.8417H254.071C254.071 36.2806 253.442 39.8058 249.74 39.8058C246.946 39.8058 246.038 37.7914 246.038 35.9928V32.5396H255.817V29.6619C255.817 26.5683 253.023 23.9065 249.181 23.9065ZM246.038 31.7482V28.223C246.038 26.6403 246.946 24.6259 249.461 24.6259C251.626 24.6259 252.464 26.8561 252.464 28.295C252.464 29.0863 252.394 30.741 252.394 31.7482H246.038ZM124.221 24.1942V24.9137H125.897V31.7482H119.96V24.9137H121.636V24.1942H114.791V24.9137H116.467V39.6619H114.791V40.3094H121.636V39.6619H119.96V32.4676H125.897V39.6619H124.221V40.3094H131.066V39.6619H129.39V24.9137H131.066V24.1942H124.221ZM183.523 24.1942V25.0576L177.446 37.4317V24.9137H179.122V24.1942H172.277V24.9137H174.023V39.6619H172.277V40.3094H177.446V39.3741L183.523 27V39.6619H181.777V40.3094H188.622V39.6619H186.946V24.9137H188.622V24.1942H183.523ZM103.126 24.1942C100.682 24.1942 96.1413 25.0576 96.1413 28.7986C96.1413 31.0288 97.6081 32.1799 99.075 32.8273L95.6524 39.6619H94.1157V40.3813H98.8654L102.288 33.4029H104.872V39.6619H103.126V40.3813H109.971V39.6619H108.365V24.9137H109.971V24.1942H103.126ZM104.872 32.6835H102.777C101.45 32.6835 99.4242 31.6763 99.4242 28.7986C99.4242 25.9928 101.24 24.9137 103.126 24.9137H104.872V32.6835ZM164.105 31.6763H161.73L162.847 28.6547C163.476 27 164.664 25.9209 166.969 25.9209L165.641 23.3309C162.917 24.8417 162.498 26.8561 161.939 28.295C161.381 29.7338 160.752 31.6043 160.752 31.6043H158.098V24.6978H159.774V23.9784H152.929V24.6978H154.605V39.446H152.929V40.1655H159.774V39.446H158.098V32.2518H160.612L163.546 40.0935H168.715V39.3741H167.108L164.105 31.6763ZM63.6613 26.9281H60.7975V18.5108H68.9699L68.8302 18.5827C68.5508 18.7986 68.4111 19.1583 68.4111 19.518V22.7554H69.1794L70.4367 17.8633H55V18.5827H57.1653V39.8058H55V40.5252H63.6613C66.5252 40.5252 71.2749 38.5827 71.2749 33.9065C71.2749 29.0144 66.6649 26.9281 63.6613 26.9281ZM63.1025 39.6619H60.7975V27.5755H62.8231C65.0583 27.5755 67.6427 29.446 67.6427 33.6187C67.5729 38.5108 64.5694 39.6619 63.1025 39.6619ZM84.6161 23.9784C81.6825 23.9784 80.4252 26.7122 80.2156 27.2878L79.7965 24.3381H75.396V25.0576H77.0026V46.2806H75.396V47H82.2413V46.2806H80.5649V40.4532L80.1458 37.2158C80.1458 37.2158 81.2634 40.741 84.6161 40.741C88.0388 40.741 89.9946 37.5755 89.9946 34.9137V29.7338C89.9247 26.5683 87.8292 23.9784 84.6161 23.9784ZM86.5719 36.1367C86.5719 37.3597 86.2925 39.9496 83.9177 39.9496C81.3332 39.9496 80.4252 36.4964 80.4252 36.4964V28.223C80.4252 28.223 81.4729 24.8417 83.9177 24.8417C85.9433 24.8417 86.5719 26.8561 86.5719 28.4388V36.1367ZM143.15 39.8777C140.356 39.8777 139.448 37.8633 139.448 36.0647V28.4388C139.448 26.8561 140.356 24.8417 142.871 24.8417C146.433 24.8417 146.642 28.0072 146.642 28.6547H147.131L147.97 24.1942H147.411L146.782 25.0576C146.153 24.6259 144.826 23.9784 142.521 23.9784C138.959 23.9784 136.025 26.2086 136.025 30.3094V34.9137C136.025 37.7914 138.68 40.6691 142.521 40.6691C146.712 40.6691 148.249 37.4317 148.249 34.9137H147.411C147.481 36.3525 146.782 39.8777 143.15 39.8777ZM204.408 24.1942V25.1295L198.401 37.5036V24.9137H200.077V24.1942H193.232V24.9137H194.908V39.6619H193.232V40.3094H198.401V39.446L204.408 27.0719V39.6619H202.731V40.3094H209.577V39.6619H207.9V24.9137H209.577V24.1942H204.408ZM201.404 20.6691C204.897 20.6691 205.386 17.2158 205.386 17.2158L202.941 17C202.941 17 203.151 19.9496 201.335 19.9496C199.588 19.9496 199.728 17 199.728 17L197.283 17.2158C197.423 17.2158 197.982 20.6691 201.404 20.6691Z" fill="#141414"/>
<path d="M31.0466 41.6498C29.7908 42.4967 28.3257 42.9201 26.9304 42.9201C25.4653 42.9201 24.0003 42.4967 22.6747 41.6498C21.3492 40.8029 13.7448 33.9574 13.7448 33.9574L13.2564 34.5925C13.2564 34.5925 12.4192 35.4394 11.0239 35.4394C8.2333 35.3688 4.60551 30.1465 4.60551 30.1465L2.30325 31.1345C2.30325 31.1345 0.000994632 34.4514 0.000994632 38.2623C-0.0687707 45.1784 3.55903 45.8842 2.23349 47.8602C2.02419 48.213 1.67536 48.4953 1.67536 48.4953C4.8148 51.8122 9.83791 54 15.6982 54C20.8608 54 25.256 52.2357 28.4653 48.9893C30.907 46.5193 32.4419 43.3435 33 39.7443C32.5116 40.5206 31.814 41.1558 31.0466 41.6498ZM23.0236 48.6365C22.1166 48.7776 21.2097 48.8482 20.3027 48.8482C13.1866 48.8482 7.04729 44.4727 4.39621 38.2623C4.25668 37.98 4.88457 37.6272 5.0241 37.9095C8.37284 43.9081 14.582 47.9308 21.9073 47.9308H22.9538C23.2329 48.0013 23.3026 48.6365 23.0236 48.6365ZM20.6515 13.2796C20.7911 13.5619 21.0004 13.7031 21.3492 13.7031L30.9768 13.3502L33 7.35153L30.7675 1.35286L21.3492 1C21.0701 1 20.7911 1.14115 20.6515 1.42344C20.0934 2.62317 19.2562 4.81092 19.2562 7.35153C19.2562 9.82157 20.0934 12.0093 20.6515 13.2796ZM0.000994632 9.25699V25.8415C0.000994632 26.4767 0.419587 26.9707 1.04747 27.0413C1.74513 27.1119 5.2334 25.6298 5.2334 25.1358V16.5965L0.000994632 9.25699Z" fill="#141414"/>
<path d="M9.21461 19.8191C14.7992 27.1886 21.1517 27.117 25.8288 27.0455C26.1081 27.0455 26.2477 27.2601 26.1779 27.5463L22.6875 37.3485L24.5723 39.0657C24.9213 39.4235 25.1308 39.8527 25.2006 40.3536C25.2006 40.8544 25.061 41.2837 24.7817 41.6415C26.6665 42.2854 28.6211 42.0708 30.2267 40.926C31.9719 39.7097 33.4379 37.1339 32.8794 33.4849C32.2511 30.1221 30.7852 26.9739 28.691 24.6844C28.4117 24.3982 28.0627 24.2551 27.7136 24.2551H25.759C21.431 24.3982 15.4275 24.5413 10.2617 17.7441L5.23558 10.5177V4.72223C7.26 7.65573 9.91269 8.51432 12.7748 8.58587L15.2181 14.0236C15.3577 14.4529 15.7765 14.6675 16.1954 14.6675H19.3367C19.5461 14.6675 19.6858 14.4529 19.616 14.2382C19.1273 13.2366 17.8708 10.5177 17.8708 7.29799C17.8708 4.07829 19.1273 1.35943 19.616 0.357745C19.616 0.214647 19.4763 0 19.2669 0H16.2652C15.7067 0 15.2879 0.357745 15.0785 0.858587L12.705 6.08166C9.21461 5.93856 6.14307 2.71886 5.30538 0.0715489L0 0V6.79715L9.21461 19.8191Z" fill="#141414"/>
</g>
<defs>
<clipPath id="clip0_1001_15193">
<rect width="273" height="54" fill="white"/>
</clipPath>
</defs>
</svg>
