<svg xmlns="http://www.w3.org/2000/svg" width="166" height="33" viewBox="0 0 166 33" fill="none">
    <g clip-path="url(#clip0_2556_4371)">
        <path d="M143.84 14.7482H144.821V14.3165H137.022V14.7482H138.002V19.4532C138.002 21.223 137.193 22.3022 135.872 23.2086L136.639 24.5899C138.428 23.2086 138.428 21.1799 138.428 19.4532V14.7482H141.71V23.5971H140.687V24.0288H144.863V23.5971H143.84V14.7482ZM165.531 20.705C165.531 21.5683 165.148 23.6835 162.889 23.6835C161.185 23.6835 160.631 22.4748 160.631 21.3957V16.8201C160.631 15.8705 161.185 14.6619 162.719 14.6619C164.892 14.6619 165.02 16.5612 165.02 16.9496V16.9928H165.318L165.83 14.3165H165.489L165.105 14.8345C164.722 14.5755 163.912 14.1871 162.506 14.1871C160.332 14.1871 158.542 15.5252 158.542 17.9856V20.7482C158.542 22.4748 160.162 24.2014 162.506 24.2014C165.062 24.2014 166 22.259 166 20.7482H165.531V20.705ZM151.468 14.1439C149.295 14.1439 147.505 15.482 147.505 17.9424V20.705C147.505 22.4317 149.125 24.1583 151.468 24.1583C154.025 24.1583 154.963 22.2158 154.963 20.705H154.451C154.451 21.5683 154.068 23.6835 151.809 23.6835C150.105 23.6835 149.551 22.4748 149.551 21.3957V19.3237H155.517V17.5971C155.517 15.741 153.812 14.1439 151.468 14.1439ZM149.551 18.8489V16.7338C149.551 15.7842 150.105 14.5755 151.639 14.5755C152.96 14.5755 153.471 15.9137 153.471 16.777C153.471 17.2518 153.429 18.2446 153.429 18.8489H149.551ZM75.231 14.3165V14.7482H76.2538V18.8489H72.6315V14.7482H73.6543V14.3165H69.4781V14.7482H70.5008V23.5971H69.4781V23.9856H73.6543V23.5971H72.6315V19.2806H76.2538V23.5971H75.231V23.9856H79.4072V23.5971H78.3845V14.7482H79.4072V14.3165H75.231ZM111.411 14.3165V14.8345L107.703 22.259V14.7482H108.726V14.3165H104.55V14.7482H105.615V23.5971H104.55V23.9856H107.703V23.4245L111.411 16V23.5971H110.345V23.9856H114.522V23.5971H113.499V14.7482H114.522V14.3165H111.411ZM62.3614 14.3165C60.8699 14.3165 58.1 14.8345 58.1 17.0791C58.1 18.4173 58.9949 19.1079 59.8898 19.4964L57.8017 23.5971H56.8641V24.0288H59.7619L61.85 19.8417H63.4268V23.5971H62.3614V24.0288H66.5377V23.5971H65.5575V14.7482H66.5377V14.3165H62.3614ZM63.4268 19.4101H62.1483C61.3387 19.4101 60.1028 18.8058 60.1028 17.0791C60.1028 15.3957 61.2108 14.7482 62.3614 14.7482H63.4268V19.4101ZM99.5639 18.8058H98.115L98.7969 16.9928C99.1804 16 99.9048 15.3525 101.311 15.3525L100.501 13.7986C98.8395 14.705 98.5838 15.9137 98.2429 16.777C97.902 17.6403 97.5184 18.7626 97.5184 18.7626H95.8991V14.6187H96.9218V14.1871H92.7456V14.6187H93.7683V23.4676H92.7456V23.8993H96.9218V23.4676H95.8991V19.1511H97.4332L99.223 23.8561H102.376V23.4245H101.396L99.5639 18.8058ZM38.2842 15.9568H36.537V10.9065H41.5229L41.4377 10.9496C41.2672 11.0791 41.182 11.295 41.182 11.5108V13.4532H41.6508L42.4178 10.518H33V10.9496H34.3211V23.6835H33V24.1151H38.2842C40.0314 24.1151 42.9292 22.9496 42.9292 20.1439C42.9292 17.2086 40.1166 15.9568 38.2842 15.9568ZM37.9433 23.5971H36.537V16.3453H37.7728C39.1365 16.3453 40.7132 17.4676 40.7132 19.9712C40.6706 22.9065 38.8382 23.5971 37.9433 23.5971ZM51.0686 14.1871C49.2788 14.1871 48.5117 15.8273 48.3839 16.1727L48.1282 14.4029H45.4434V14.8345H46.4236V27.5683H45.4434V28H49.6197V27.5683H48.5969V24.0719L48.3412 22.1295C48.3412 22.1295 49.0231 24.2446 51.0686 24.2446C53.1567 24.2446 54.3499 22.3453 54.3499 20.7482V17.6403C54.3073 15.741 53.0288 14.1871 51.0686 14.1871ZM52.2618 21.482C52.2618 22.2158 52.0913 23.7698 50.6424 23.7698C49.0657 23.7698 48.5117 21.6978 48.5117 21.6978V16.7338C48.5117 16.7338 49.1509 14.705 50.6424 14.705C51.8782 14.705 52.2618 15.9137 52.2618 16.8633V21.482ZM86.7796 23.7266C85.075 23.7266 84.521 22.518 84.521 21.4388V16.8633C84.521 15.9137 85.075 14.705 86.6091 14.705C88.7824 14.705 88.9103 16.6043 88.9103 16.9928H89.2086L89.72 14.3165H89.379L88.9955 14.8345C88.612 14.5755 87.8023 14.1871 86.396 14.1871C84.2227 14.1871 82.4329 15.5252 82.4329 17.9856V20.7482C82.4329 22.4748 84.0522 24.2014 86.396 24.2014C88.9529 24.2014 89.8904 22.259 89.8904 20.7482H89.379C89.4217 21.6115 88.9955 23.7266 86.7796 23.7266ZM124.153 14.3165V14.8777L120.488 22.3022V14.7482H121.51V14.3165H117.334V14.7482H118.357V23.5971H117.334V23.9856H120.488V23.4676L124.153 16.0432V23.5971H123.13V23.9856H127.306V23.5971H126.283V14.7482H127.306V14.3165H124.153ZM122.32 12.2014C124.451 12.2014 124.749 10.1295 124.749 10.1295L123.258 10C123.258 10 123.385 11.7698 122.277 11.7698C121.212 11.7698 121.297 10 121.297 10L119.806 10.1295C119.891 10.1295 120.232 12.2014 122.32 12.2014Z" fill="white"/>
        <path d="M18.8161 25.5433C18.055 26.0546 17.1671 26.3103 16.3215 26.3103C15.4335 26.3103 14.5456 26.0546 13.7423 25.5433C12.9389 25.032 8.33016 20.8988 8.33016 20.8988L8.03419 21.2823C8.03419 21.2823 7.5268 21.7936 6.68116 21.7936C4.98988 21.751 2.79122 18.5979 2.79122 18.5979L1.39591 19.1944C1.39591 19.1944 0.000602807 21.1971 0.000602807 23.498C-0.0416792 27.6738 2.15699 28.0999 1.35363 29.2929C1.22678 29.506 1.01537 29.6764 1.01537 29.6764C2.91806 31.6791 5.96237 33 9.51406 33C12.6429 33 15.3067 31.9348 17.2517 29.9747C18.7315 28.4834 19.6617 26.5659 20 24.3928C19.704 24.8615 19.2812 25.245 18.8161 25.5433ZM13.9537 29.7617C13.404 29.8469 12.8543 29.8895 12.3047 29.8895C7.99191 29.8895 4.27109 27.2477 2.66437 23.498C2.57981 23.3276 2.96034 23.1145 3.04491 23.285C5.07445 26.9068 8.83755 29.3356 13.2772 29.3356H13.9114C14.0805 29.3782 14.1228 29.7617 13.9537 29.7617ZM12.5161 8.41412C12.6006 8.58456 12.7275 8.66977 12.9389 8.66977L18.7738 8.45672L20 4.83489L18.647 1.21305L12.9389 1C12.7698 1 12.6006 1.08522 12.5161 1.25566C12.1778 1.98003 11.6704 3.30093 11.6704 4.83489C11.6704 6.32623 12.1778 7.64714 12.5161 8.41412ZM0.000602807 5.98535V15.9987C0.000602807 16.3822 0.254295 16.6804 0.634833 16.723C1.05765 16.7656 3.17175 15.8708 3.17175 15.5726V10.4168L0.000602807 5.98535Z" fill="white"/>
        <path d="M5.58461 11.7971C8.96923 16.1837 12.8192 16.1411 15.6538 16.0985C15.8231 16.0985 15.9077 16.2263 15.8654 16.3966L13.75 22.2313L14.8923 23.2534C15.1038 23.4663 15.2308 23.7219 15.2731 24.02C15.2731 24.3181 15.1885 24.5736 15.0192 24.7866C16.1615 25.1699 17.3461 25.0421 18.3192 24.3607C19.3769 23.6367 20.2654 22.1035 19.9269 19.9315C19.5461 17.9298 18.6577 16.0559 17.3885 14.6931C17.2192 14.5227 17.0077 14.4376 16.7961 14.4376H15.6115C12.9885 14.5227 9.35 14.6079 6.21923 10.562L3.17308 6.26053V2.81085C4.4 4.55698 6.00769 5.06805 7.7423 5.11064L9.22307 8.34737C9.30769 8.60291 9.56154 8.73067 9.81538 8.73067H11.7192C11.8462 8.73067 11.9308 8.60291 11.8885 8.47514C11.5923 7.8789 10.8308 6.26053 10.8308 4.34404C10.8308 2.42755 11.5923 0.809184 11.8885 0.212943C11.8885 0.127766 11.8038 0 11.6769 0H9.85769C9.51923 0 9.26538 0.212943 9.13846 0.511064L7.7 3.62003C5.58461 3.53486 3.72308 1.61837 3.21538 0.0425886L0 0V4.04592L5.58461 11.7971Z" fill="white"/>
    </g>
    <defs>
        <clipPath id="clip0_2556_4371">
            <rect width="166" height="33" fill="white"/>
        </clipPath>
    </defs>
</svg>